<svg width="93" height="92" viewBox="0 0 93 92" fill="none" xmlns="http://www.w3.org/2000/svg">
<circle cx="41" cy="54" r="38" fill="#C780FF" fill-opacity="0.6"/>
<circle cx="53" cy="52" r="36" fill="#00D1FF" fill-opacity="0.6"/>
<circle cx="55" cy="38" r="38" fill="#C780FF" fill-opacity="0.6"/>
<circle cx="36" cy="38" r="36" fill="#00D1FF" fill-opacity="0.6"/>
<path d="M42.1406 46.5586V59H40.1484V30.4453H46.9453C50.487 30.4453 53.1042 31.1029 54.7969 32.418C56.4896 33.7201 57.3359 35.6862 57.3359 38.3164C57.3359 40.2305 56.8281 41.8451 55.8125 43.1602C54.8099 44.4753 53.2799 45.4193 51.2227 45.9922L58.9766 59H56.5938L49.2305 46.5586H42.1406ZM42.1406 44.8398H47.5898C49.9987 44.8398 51.8672 44.306 53.1953 43.2383C54.5234 42.1576 55.1875 40.569 55.1875 38.4727C55.1875 36.2982 54.5365 34.7161 53.2344 33.7266C51.9323 32.737 49.8099 32.2422 46.8672 32.2422H42.1406V44.8398Z" fill="white"/>
</svg>
